<svg width="82" height="82" viewBox="0 0 82 82" fill="none" xmlns="http://www.w3.org/2000/svg">
<g clip-path="url(#clip0_2545_45038)">
<rect width="82" height="82" fill="#403881"/>
<path d="M50.8115 24.4551C50.8115 23.7943 50.9255 23.293 51.1533 22.9512C52.1787 21.4473 53.6143 19.8636 55.46 18.2002C55.8018 17.9268 56.098 17.79 56.3486 17.79C56.6221 17.79 56.9069 17.9268 57.2031 18.2002C58.2057 19.0661 59.0488 19.8978 59.7324 20.6953C60.416 21.4701 61.0085 22.222 61.5098 22.9512C61.7376 23.3158 61.8516 23.8171 61.8516 24.4551V66.1885C61.8516 66.8721 61.7035 67.3506 61.4072 67.624C61.1338 67.8747 60.6553 68 59.9717 68H52.6914C52.0078 68 51.5179 67.8747 51.2217 67.624C50.9482 67.3506 50.8115 66.8721 50.8115 66.1885V48.0391H30.5088V66.1885C30.5088 66.8721 30.3607 67.3506 30.0645 67.624C29.791 67.8747 29.3125 68 28.6289 68H21.3486C20.665 68 20.1751 67.8747 19.8789 67.624C19.6055 67.3506 19.4688 66.8721 19.4688 66.1885V20.7979C19.4688 20.1143 19.6055 19.6471 19.8789 19.3965C20.1751 19.123 20.665 18.9863 21.3486 18.9863H28.6289C29.3125 18.9863 29.791 19.123 30.0645 19.3965C30.3607 19.6471 30.5088 20.1143 30.5088 20.7979V38.5371H50.8115V24.4551Z" fill="white"/>
</g>
<defs>
<clipPath id="clip0_2545_45038">
<rect width="82" height="82" fill="white"/>
</clipPath>
</defs>
</svg>
