<svg width="375" height="68" viewBox="0 0 375 68" fill="none" xmlns="http://www.w3.org/2000/svg">
<path d="M4.15 52V15H8V31.25H26.55V15H30.4V52H26.55V34.75H8V52H4.15ZM49.4703 52.5C46.837 52.5 44.737 51.65 43.1703 49.95C41.6036 48.25 40.8203 45.8833 40.8203 42.85V25.5H44.5703V42.7C44.5703 44.7667 45.087 46.3667 46.1203 47.5C47.1536 48.6333 48.5703 49.2 50.3703 49.2C52.137 49.2 53.5536 48.7333 54.6203 47.8C55.687 46.8333 56.4536 45.6333 56.9203 44.2C57.4203 42.7333 57.6703 41.2167 57.6703 39.65V25.5H61.4203V52H57.6703V47.65H57.4203C57.187 48.1167 56.7703 48.75 56.1703 49.55C55.5703 50.3167 54.737 51 53.6703 51.6C52.6036 52.2 51.2036 52.5 49.4703 52.5ZM71.8965 61.75C71.1632 61.75 70.5632 61.7167 70.0965 61.65C69.6298 61.6167 69.3965 61.6 69.3965 61.6V58.35C69.3965 58.35 69.6465 58.3667 70.1465 58.4C70.6798 58.4667 71.2298 58.5 71.7965 58.5C73.8298 58.5 75.5132 58 76.8465 57C78.1798 56 79.2798 54.4333 80.1465 52.3L69.7965 25.5H73.6965L81.9965 47.45L90.3465 25.5H94.2965L83.6965 52.65C82.4632 55.75 80.8798 58.0333 78.9465 59.5C77.0465 61 74.6965 61.75 71.8965 61.75ZM102.314 52V25.5H106.064V29.9H106.314C106.548 29.4 106.964 28.7667 107.564 28C108.164 27.2 108.998 26.5 110.064 25.9C111.131 25.3 112.481 25 114.114 25C116.081 25 117.748 25.45 119.114 26.35C120.481 27.25 121.514 28.4667 122.214 30C122.948 31.5333 123.314 33.2667 123.314 35.2V52H119.614V35.4C119.614 33.3667 119.064 31.6833 117.964 30.35C116.898 28.9833 115.314 28.3 113.214 28.3C111.548 28.3 110.181 28.7333 109.114 29.6C108.081 30.4667 107.314 31.5833 106.814 32.95C106.314 34.3167 106.064 35.7167 106.064 37.15V52H102.314ZM133.73 52V14H137.48V29.9H137.73C137.963 29.4 138.38 28.7667 138.98 28C139.58 27.2 140.413 26.5 141.48 25.9C142.58 25.3 143.947 25 145.58 25C147.513 25 149.163 25.45 150.53 26.35C151.897 27.25 152.947 28.4667 153.68 30C154.413 31.5333 154.78 33.2667 154.78 35.2V52H151.03V35.4C151.03 33.3667 150.48 31.6833 149.38 30.35C148.313 28.9833 146.747 28.3 144.68 28.3C142.98 28.3 141.597 28.7333 140.53 29.6C139.497 30.4667 138.73 31.5833 138.23 32.95C137.73 34.3167 137.48 35.7167 137.48 37.15V52H133.73Z" fill="white"/>
<path d="M173.4 52V15H188.65C191.683 15 194.2 15.6 196.2 16.8C198.233 18 199.75 19.55 200.75 21.45C201.783 23.3167 202.3 25.2667 202.3 27.3C202.3 29.4 201.783 31.4 200.75 33.3C199.75 35.1667 198.233 36.7 196.2 37.9C194.2 39.1 191.683 39.7 188.65 39.7H181.1V52H173.4ZM188.65 21.75H181.1V33H188.65C189.95 33 191.033 32.7333 191.9 32.2C192.767 31.6333 193.417 30.9333 193.85 30.1C194.317 29.2333 194.55 28.3167 194.55 27.35C194.55 26.4167 194.317 25.5167 193.85 24.65C193.417 23.7833 192.767 23.0833 191.9 22.55C191.033 22.0167 189.95 21.75 188.65 21.75ZM206.836 52V25.5H214.386V29.35H214.636C214.936 28.65 215.352 27.9667 215.886 27.3C216.419 26.6333 217.152 26.0833 218.086 25.65C219.019 25.2167 220.219 25 221.686 25C222.419 25 223.002 25.05 223.436 25.15C223.869 25.2167 224.086 25.25 224.086 25.25V32.75C224.086 32.75 223.836 32.7 223.336 32.6C222.869 32.5 222.252 32.45 221.486 32.45C219.119 32.45 217.352 33.1 216.186 34.4C215.019 35.6667 214.436 37.75 214.436 40.65V52H206.836ZM240.698 52.5C237.731 52.5 235.215 51.8667 233.148 50.6C231.081 49.3 229.498 47.6167 228.398 45.55C227.331 43.45 226.798 41.1833 226.798 38.75C226.798 36.3167 227.331 34.0667 228.398 32C229.498 29.9 231.081 28.2167 233.148 26.95C235.215 25.65 237.731 25 240.698 25C243.665 25 246.181 25.65 248.248 26.95C250.315 28.2167 251.881 29.9 252.948 32C254.048 34.0667 254.598 36.3167 254.598 38.75C254.598 41.1833 254.048 43.45 252.948 45.55C251.881 47.6167 250.315 49.3 248.248 50.6C246.181 51.8667 243.665 52.5 240.698 52.5ZM240.698 46.3C242.031 46.3 243.148 45.95 244.048 45.25C244.981 44.55 245.698 43.6333 246.198 42.5C246.698 41.3333 246.948 40.0833 246.948 38.75C246.948 37.3833 246.698 36.1333 246.198 35C245.698 33.8667 244.981 32.95 244.048 32.25C243.148 31.55 242.031 31.2 240.698 31.2C239.365 31.2 238.231 31.55 237.298 32.25C236.365 32.95 235.648 33.8667 235.148 35C234.681 36.1333 234.448 37.3833 234.448 38.75C234.448 40.0833 234.681 41.3333 235.148 42.5C235.648 43.6333 236.365 44.55 237.298 45.25C238.231 45.95 239.365 46.3 240.698 46.3ZM271.114 52.5C269.147 52.5 267.431 52.1167 265.964 51.35C264.531 50.55 263.331 49.5 262.364 48.2C261.397 46.8667 260.664 45.3833 260.164 43.75C259.697 42.1167 259.464 40.45 259.464 38.75C259.464 37.05 259.697 35.3833 260.164 33.75C260.664 32.1167 261.397 30.65 262.364 29.35C263.331 28.0167 264.531 26.9667 265.964 26.2C267.431 25.4 269.147 25 271.114 25C272.814 25 274.214 25.2833 275.314 25.85C276.414 26.3833 277.247 26.9667 277.814 27.6C278.414 28.2333 278.781 28.6667 278.914 28.9H279.314V14H286.914V52H279.314V48.6H278.914C278.781 48.8333 278.414 49.2667 277.814 49.9C277.247 50.5333 276.414 51.1333 275.314 51.7C274.214 52.2333 272.814 52.5 271.114 52.5ZM273.314 46.35C274.681 46.35 275.814 45.9833 276.714 45.25C277.647 44.4833 278.331 43.5167 278.764 42.35C279.231 41.1833 279.464 39.9833 279.464 38.75C279.464 37.5167 279.231 36.3167 278.764 35.15C278.331 33.9833 277.647 33.0333 276.714 32.3C275.814 31.5333 274.681 31.15 273.314 31.15C271.947 31.15 270.797 31.5333 269.864 32.3C268.964 33.0333 268.281 33.9833 267.814 35.15C267.381 36.3167 267.164 37.5167 267.164 38.75C267.164 39.9833 267.381 41.1833 267.814 42.35C268.281 43.5167 268.964 44.4833 269.864 45.25C270.797 45.9833 271.947 46.35 273.314 46.35ZM301.463 52.5C299.596 52.5 298.046 52.1 296.813 51.3C295.613 50.5 294.713 49.4333 294.113 48.1C293.513 46.7333 293.213 45.2 293.213 43.5V25.5H300.763V42C300.763 43.2667 301.096 44.3 301.763 45.1C302.429 45.8667 303.413 46.25 304.713 46.25C305.813 46.25 306.679 45.9833 307.313 45.45C307.979 44.9167 308.463 44.2333 308.763 43.4C309.063 42.5667 309.213 41.6833 309.213 40.75V25.5H316.813V52H309.213V48.25H308.913C308.346 49.2833 307.463 50.25 306.263 51.15C305.096 52.05 303.496 52.5 301.463 52.5ZM336.057 52.5C333.724 52.5 331.69 52.1167 329.957 51.35C328.224 50.55 326.79 49.5 325.657 48.2C324.524 46.9 323.674 45.4333 323.107 43.8C322.54 42.1333 322.257 40.45 322.257 38.75C322.257 37.05 322.54 35.3833 323.107 33.75C323.674 32.1167 324.524 30.65 325.657 29.35C326.79 28.0167 328.224 26.9667 329.957 26.2C331.69 25.4 333.724 25 336.057 25C338.424 25 340.374 25.35 341.907 26.05C343.44 26.7167 344.657 27.5667 345.557 28.6C346.49 29.6 347.174 30.6167 347.607 31.65C348.04 32.65 348.307 33.5 348.407 34.2C348.54 34.8667 348.607 35.2 348.607 35.2H341.507C341.507 35.2 341.44 35 341.307 34.6C341.207 34.1667 340.974 33.6833 340.607 33.15C340.274 32.5833 339.757 32.1 339.057 31.7C338.357 31.2667 337.424 31.05 336.257 31.05C334.824 31.05 333.624 31.4167 332.657 32.15C331.724 32.85 331.024 33.7833 330.557 34.95C330.09 36.1167 329.857 37.3833 329.857 38.75C329.857 40.1167 330.09 41.3833 330.557 42.55C331.024 43.7167 331.724 44.6667 332.657 45.4C333.624 46.1 334.824 46.45 336.257 46.45C337.424 46.45 338.357 46.25 339.057 45.85C339.757 45.4167 340.274 44.9333 340.607 44.4C340.974 43.8333 341.207 43.35 341.307 42.95C341.44 42.5167 341.507 42.3 341.507 42.3H348.607C348.607 42.3 348.54 42.65 348.407 43.35C348.307 44.0167 348.04 44.8667 347.607 45.9C347.174 46.9 346.49 47.9167 345.557 48.95C344.657 49.95 343.44 50.8 341.907 51.5C340.374 52.1667 338.424 52.5 336.057 52.5ZM366.402 52.5C364.336 52.5 362.686 52.2 361.452 51.6C360.219 50.9667 359.286 50.1833 358.652 49.25C358.019 48.2833 357.602 47.2667 357.402 46.2C357.202 45.1333 357.102 44.15 357.102 43.25V31.55H352.602V25.5H357.102V18.95H364.702V25.5H370.352V31.55H364.702V43.05C364.702 44.15 364.986 45 365.552 45.6C366.152 46.2 367.136 46.5 368.502 46.5C369.102 46.5 369.652 46.45 370.152 46.35C370.652 46.25 370.902 46.2 370.902 46.2V52.05C370.902 52.05 370.452 52.1167 369.552 52.25C368.652 52.4167 367.602 52.5 366.402 52.5Z" fill="#6B5CE7"/>
</svg>
